<?xml version="1.0" encoding="UTF-8"?>
<svg id="Layer_1" data-name="Layer 1" xmlns="http://www.w3.org/2000/svg" viewBox="0 0 100 100">
  <defs>
    <style>
      .cls-1 {
        stroke-width: 0px;
      }
    </style>
  </defs>
  <path class="cls-1" d="M49.86,24.63c15.45,13.48,15.43,47.28.08,59.88-14.61-11.03-16.66-45.44-.08-59.88Z"/>
  <path class="cls-1" d="M52.56,85.06c8.72-10.32,11.33-21.74,10.7-34.17-.04-.89.25-2.09.85-2.68,5.42-5.26,11.68-8.92,19.33-9.89,1.73-.22,2.53.23,2.78,2.12,2.46,17.91-12.58,40-30.05,44.02-.97.22-1.96.32-3.62.59Z"/>
  <path class="cls-1" d="M46.93,84.89c-20.14-1.95-37.19-27.47-32.92-46.67,1.61.18,3.38.08,4.92.62,3.32,1.16,6.66,2.38,9.74,4.05,5.03,2.73,8.32,6.01,7.87,12.95-.69,10.63,3.02,20.42,10.39,29.05Z"/>
  <path class="cls-1" d="M43.49,86.94c-12.69.99-22.65-3.43-31.16-11.46-5.39-5.08-9.12-11.23-10.99-18.47-.58-2.25-.1-3.49,2.3-3.75.2-.02.39-.1.59-.15,7.07-1.55,7.23-1.35,9.85,5.24,5.28,13.28,13.94,23.25,28.02,27.71.26.08.49.3,1.41.87Z"/>
  <path class="cls-1" d="M56.28,86.62c1.96-.72,3.56-1.2,5.08-1.88,13.05-5.83,20.97-16.11,25.17-29.43.72-2.29,1.65-3.22,3.96-2.82,2.66.45,5.32.85,7.93,1.26-.77,17.3-22.57,36.21-42.14,32.87Z"/>
  <path class="cls-1" d="M30.6,27.58c1.82.92,2.93,1.4,3.96,2.01,5.86,3.46,5.87,3.57,3.93,10.01-.64,2.12-1.12,4.29-1.72,6.58-2.93-1.99-5.86-3.89-8.67-5.95-.48-.35-.78-1.45-.62-2.05.89-3.38,1.96-6.71,3.12-10.6Z"/>
  <path class="cls-1" d="M63.02,46.12c-1.12-3.58-2.28-7.02-3.22-10.51-.2-.76.11-2.09.67-2.53,2.42-1.92,5.03-3.6,8.38-5.94,1.28,4.28,2.39,7.77,3.32,11.31.14.54-.4,1.54-.93,1.92-2.66,1.97-5.42,3.81-8.22,5.75Z"/>
</svg>