<?xml version="1.0" encoding="UTF-8"?>
<svg id="Layer_1" data-name="Layer 1" xmlns="http://www.w3.org/2000/svg" viewBox="0 0 100 100">
  <defs>
    <style>
      .cls-1 {
        stroke-width: 0px;
      }
    </style>
  </defs>
  <path class="cls-1" d="M2.1,41.18h72.11c.01.23.03.42.03.61,0,3.8.01,7.61-.02,11.41,0,.34-.19.75-.43.99-4.27,4.32-8.58,8.6-12.84,12.93-.58.58-1.08,1.3-1.43,2.05-1.49,3.19-2.92,6.41-4.36,9.62-.6,1.34-.41,2.6.54,3.53.95.93,2.2,1.1,3.53.49,3.3-1.52,6.6-3.03,9.88-4.57.48-.22.93-.55,1.31-.92,1.09-1.05,2.14-2.13,3.21-3.21.15-.15.31-.29.53-.49.03.23.07.37.07.51,0,3.22,0,6.44,0,9.66,0,3.64-2.47,6.09-6.12,6.09-19.93,0-39.86,0-59.79,0-3.82,0-6.23-2.43-6.23-6.24,0-13.83,0-27.67,0-41.5,0-.3,0-.6,0-.94ZM24.53,53.66c.06-.97.16-1.84.15-2.72-.01-1.97-1.48-3.43-3.45-3.46-1.75-.02-3.5-.01-5.25,0-.86,0-1.21.36-1.21,1.23,0,3.85,0,7.69,0,11.54,0,.86.35,1.24,1.21,1.25,2.46.01,4.93.02,7.39,0,1.55-.02,2.89-.93,3.19-2.37.53-2.52.23-4.41-2.03-5.46ZM35.17,65.59h0c-5.86,0-11.72,0-17.57,0-.22,0-.44,0-.65.04-.51.11-.8.44-.8.96,0,.52.29.85.8.96.25.05.52.04.77.04,11.67,0,23.35,0,35.02,0,.19,0,.39,0,.58-.03.57-.09.93-.48.9-1-.04-.59-.39-.89-.96-.96-.17-.02-.35-.01-.52-.01-5.86,0-11.72,0-17.57,0ZM51.45,54.28c0,.86,0,1.73,0,2.59.04,2.59,2.02,4.72,4.63,4.98,2.45.24,4.77-1.52,5.3-4.01.39-1.85-.3-3.39-2-4-.91-.33-1.93-.38-2.91-.46-.74-.06-1.18.39-1.17.99,0,.62.43.93,1.2.97.64.03,1.3.07,1.92.23.9.24,1.19.8,1.05,1.72-.23,1.55-1.65,2.68-3.23,2.58-1.53-.1-2.81-1.44-2.83-3.02-.02-1.69-.02-3.37,0-5.06.02-1.64,1.33-3.01,2.92-3.08,1.62-.07,3.01,1.19,3.16,2.88.07.79.48,1.2,1.11,1.14.6-.06.91-.53.87-1.29-.15-2.62-2.39-4.72-5.03-4.7-2.64.01-4.9,2.19-4.99,4.82-.03.91,0,1.82,0,2.72ZM40.41,54.53c0,1.02-.01,2.03,0,3.05.03,2.22,1.73,3.93,3.9,3.93,2.17,0,3.89-1.72,3.9-3.93.01-2.05.01-4.11,0-6.16-.02-2.22-1.72-3.92-3.9-3.93-2.16,0-3.88,1.71-3.9,3.93-.01,1.04,0,2.07,0,3.11ZM28.42,74.78c2.77,0,5.53,0,8.3,0,1.02,0,2.03.01,3.05,0,.58-.01,1.01-.46,1-.98,0-.54-.42-.94-1-.98-.15,0-.3,0-.45,0-7.26,0-14.52,0-21.78,0-.17,0-.35-.01-.52.01-.54.09-.86.41-.86.97,0,.56.32.88.86.97.21.03.43.02.65.02,3.59,0,7.17,0,10.76,0ZM28.49,82.04h0c3.65,0,7.3,0,10.96,0,.17,0,.35.02.52-.02.5-.12.8-.46.79-.97,0-.51-.3-.85-.81-.95-.19-.04-.39-.03-.58-.03-7.22,0-14.44,0-21.65,0-.26,0-.53-.02-.78.03-.5.11-.79.43-.79.96,0,.53.3.85.8.95.23.05.47.03.71.03,3.61,0,7.22,0,10.83,0ZM32.01,59.52c0-.42,0-.74,0-1.07,0-3.2,0-6.4,0-9.59,0-.93-.33-1.37-1-1.36-.66.02-.96.44-.97,1.33,0,1.17,0,2.33,0,3.5,0,2.66,0,5.32,0,7.97,0,.59.21,1.13.8,1.15,1.83.06,3.67.05,5.5,0,.49-.02.77-.46.74-.99-.02-.49-.31-.8-.79-.9-.27-.05-.56-.04-.84-.04-1.12,0-2.24,0-3.45,0Z"/>
  <path class="cls-1" d="M74.18,39.13H2.1c0-.27,0-.5,0-.74,0-2.16,0-4.32,0-6.48.02-3.51,2.53-5.98,6.04-5.97,19.86,0,39.72,0,59.59,0,1.71,0,3.26.31,4.56,1.48,1.22,1.1,1.91,2.47,1.94,4.1.05,2.44.01,4.88.01,7.33,0,.08-.03.16-.06.3ZM57.39,29.23c-3.05,0-6.09,0-9.14,0-1.12,0-1.4.29-1.4,1.43,0,1.73,0,3.46,0,5.18,0,1.05.3,1.39,1.33,1.39,6.15,0,12.31,0,18.46,0,.97,0,1.3-.33,1.3-1.28,0-1.81,0-3.63,0-5.44,0-.96-.33-1.28-1.29-1.28-3.09,0-6.18,0-9.26,0ZM31.89,33.07c0-.89.01-1.77,0-2.66-.01-.73-.34-1.09-1.07-1.11-1.25-.03-2.51-.03-3.76,0-.69.01-1.03.38-1.04,1.07-.01,1.77-.01,3.55,0,5.32,0,.67.38,1.04,1.06,1.05,1.23.02,2.46.02,3.7,0,.74-.01,1.1-.38,1.11-1.14.01-.84,0-1.69,0-2.53ZM20.51,36.79c2.1,0,3.79-1.67,3.81-3.77.01-2.08-1.7-3.79-3.79-3.79-2.06,0-3.76,1.69-3.77,3.74-.01,2.11,1.66,3.81,3.75,3.82ZM12.11,36.79c2.07-.01,3.77-1.7,3.77-3.75,0-2.13-1.73-3.84-3.85-3.81-2.04.03-3.68,1.75-3.65,3.85.02,2.04,1.71,3.72,3.73,3.71Z"/>
  <path class="cls-1" d="M97.43,45.09c0,1.73-.57,2.96-1.62,4-6.98,6.98-13.95,13.98-20.92,20.96-1.89,1.9-3.78,3.79-5.67,5.69-.86.86-1.26.87-2.1.03-1.68-1.68-3.37-3.36-5.04-5.04-.76-.77-.76-1.2,0-1.96,8.94-8.96,17.88-17.93,26.82-26.89,1.48-1.48,3.63-1.9,5.51-1.08,1.95.86,2.91,2.42,3.03,4.28Z"/>
  <path class="cls-1" d="M60.17,71.64c2,2.01,3.94,3.95,5.87,5.89.07.07.14.16.26.31-.68.28-1.31.54-1.94.8-1.94.78-3.89,1.56-5.83,2.34-.5.2-.98.38-1.44-.07-.46-.44-.31-.92-.1-1.43.98-2.42,1.95-4.85,2.92-7.27.06-.16.14-.31.26-.57Z"/>
  <path class="cls-1" d="M16.79,59.52v-4.05c.5,0,.94,0,1.39,0,1.66,0,3.33,0,4.99,0,1.02,0,1.56.55,1.59,1.55.06,2.22-.2,2.49-2.44,2.49-1.6,0-3.2,0-4.79,0-.23,0-.47,0-.74,0Z"/>
  <path class="cls-1" d="M16.79,53.48v-4c1.59,0,3.15-.04,4.7.02.84.03,1.23.73,1.23,1.89,0,1.39-.33,2.04-1.23,2.07-1.55.06-3.1.02-4.7.02Z"/>
  <path class="cls-1" d="M42.38,54.49c0-.99-.01-1.99,0-2.98.02-1.21.85-2.06,1.96-2.04,1.09.02,1.89.86,1.89,2.04.01,2.01.01,4.02,0,6.03,0,1.13-.82,1.95-1.9,1.97-1.1.02-1.94-.82-1.96-1.97-.02-1.02,0-2.03,0-3.05h0Z"/>
  <path class="cls-1" d="M65.93,31.25v3.93h-17.05v-3.93h17.05Z"/>
  <path class="cls-1" d="M28,34.72v-3.39h1.87v3.39h-1.87Z"/>
  <path class="cls-1" d="M20.51,34.81c-1.02-.02-1.79-.82-1.77-1.84.03-.99.81-1.77,1.79-1.76,1.01,0,1.81.81,1.8,1.82,0,1.02-.81,1.8-1.83,1.79Z"/>
  <path class="cls-1" d="M12.09,34.81c-.95,0-1.73-.81-1.74-1.8,0-.97.79-1.79,1.74-1.8,1-.01,1.8.78,1.8,1.8,0,1.01-.79,1.81-1.8,1.8Z"/>
</svg>