<?xml version="1.0" encoding="UTF-8"?>
<svg id="Layer_1" data-name="Layer 1" xmlns="http://www.w3.org/2000/svg" viewBox="0 0 506.3 62.96">
  <defs>
    <style>
      .cls-1 {
        fill: #231f20;
        stroke-width: 0px;
      }
    </style>
  </defs>
  <g>
    <path class="cls-1" d="M248.01,45.19c-8.51-7.72-7.73-25.37.08-31.71,8.18,6.15,8.18,25.57-.08,31.71Z"/>
    <path class="cls-1" d="M249.54,45.43c4.65-5.49,6.03-11.6,5.67-18.23-.02-.42.14-.99.43-1.27,2.87-2.78,6.18-4.74,10.23-5.26.88-.11,1.36.04,1.51,1.08,1.41,9.7-7,21.7-16.51,23.48-.31.06-.62.1-1.33.21Z"/>
    <path class="cls-1" d="M246.59,45.41c-3.82-.45-6.83-2-9.43-4.3-5.57-4.94-8.64-11.07-8.4-18.64.06-1.91.19-2.01,2.1-1.71,3.79.6,6.91,2.5,9.63,5.11.27.26.5.74.48,1.1-.4,6.74,1,12.95,5.62,18.44Z"/>
    <path class="cls-1" d="M244.76,46.42c-6.74.53-12.01-1.81-16.52-6.06-2.86-2.69-4.84-5.95-5.83-9.78-.3-1.18-.09-1.86,1.2-2,.11-.01.21-.06.31-.08,3.75-.83,3.84-.71,5.22,2.76,2.79,7.04,7.38,12.32,14.84,14.69.14.04.26.15.78.47Z"/>
    <path class="cls-1" d="M251.39,46.3c8.8-2.92,13.8-8.9,16.36-17.18.12-.39.69-.93,1.01-.91,1.72.1,3.44.37,5.13.57-.55,9.79-12.32,18.95-22.51,17.52Z"/>
    <path class="cls-1" d="M241.07,24.77c-1.48-1.02-2.91-1.96-4.29-2.97-.29-.21-.62-.71-.55-.98.48-1.89,1.07-3.75,1.76-6.08,1.83,1.28,3.26,2.27,4.65,3.3.21.15.39.59.32.81-.6,2-1.26,3.99-1.88,5.92Z"/>
    <path class="cls-1" d="M258.17,14.74c.68,2.25,1.27,4,1.72,5.79.09.37-.23,1.02-.56,1.27-1.35,1.04-2.78,1.98-4.23,2.99-.61-1.92-1.28-3.86-1.82-5.83-.09-.32.22-.93.53-1.17,1.26-.97,2.6-1.84,4.36-3.06Z"/>
  </g>
  <g>
    <path class="cls-1" d="M301.53,38.88c-.24.03-.58.09-.98.29-.39.2-.83.54-1.13,1.07-.15.26-.27.56-.33.89-.02.16-.04.33-.04.51.01.18.05.38.07.58.14.77.52,1.53,1.22,2.05,1.21.96,3.1,1.2,4.76.75,1.69-.42,3.12-1.69,3.88-3.29.55-1.12.75-2.35.76-3.53-.02-1.19-.27-2.34-.69-3.38-.42-1.04-1.02-1.96-1.78-2.67-.76-.72-1.65-1.23-2.58-1.56-1.87-.64-3.83-.58-5.52-.14-1.7.45-3.17,1.25-4.33,2.24-1.17.99-2.05,2.13-2.83,3.22-.78,1.09-1.44,2.15-2.17,3.05-.72.91-1.51,1.66-2.34,2.19-.21.12-.42.24-.63.35-.21.11-.43.17-.64.26-.41.18-.82.26-1.21.35-1.54.36-2.83.3-3.79.1-.96-.2-1.61-.54-2.04-.82-.43-.29-.65-.52-.78-.65-.13-.14-.16-.19-.16-.19,0,0,.04.05.18.17.14.12.38.33.82.58.44.25,1.08.54,2.02.69.93.14,2.17.16,3.65-.24.37-.11.77-.2,1.14-.37.19-.09.4-.15.59-.26.19-.11.38-.23.58-.35.76-.52,1.49-1.24,2.17-2.13.69-.89,1.33-1.95,2.1-3.07.77-1.12,1.66-2.32,2.88-3.39,1.22-1.07,2.78-1.94,4.59-2.44,1.8-.49,3.9-.59,5.97.1,4.28,1.24,7.16,7.11,4.83,12.28-.43.9-1.03,1.73-1.78,2.4-.73.68-1.65,1.21-2.6,1.52-.96.31-1.96.45-2.98.4-1.01-.06-2.05-.31-2.97-.87-1.08-.61-1.87-1.73-2.2-2.87-.07-.29-.15-.56-.2-.86-.04-.3-.05-.61-.04-.91.03-.6.18-1.17.41-1.67.22-.5.52-.94.85-1.31.33-.37.7-.65,1.06-.88.73-.45,1.42-.61,1.9-.68,1.2-.14,2.32.25,3.09.83.78.58,1.27,1.32,1.5,1.98.23.67.23,1.25.12,1.62-.11.38-.28.56-.45.55-.36-.01-.61-.68-1.23-1.32-.58-.66-1.67-1.31-2.72-1.17Z"/>
    <path class="cls-1" d="M302.76,34.48c-.47-.14-1.39-.41-2.59-.4-.6.02-1.27.08-1.94.29-.67.21-1.37.5-2,.94-1.11.77-2.04,1.94-2.99,3.14-.96,1.21-2.02,2.38-3.22,3.4-.84.72-1.73,1.33-2.66,1.81-.94.49-1.92.81-2.9.99-1.95.35-3.91.15-5.52-.65-.8-.4-1.49-.94-2.06-1.56-.27-.32-.53-.64-.73-.99-.23-.33-.38-.71-.54-1.06-.55-1.47-.5-3.03.02-4.29.5-1.27,1.48-2.23,2.56-2.7.28-.1.54-.22.82-.26.14-.03.27-.06.41-.08.14,0,.27-.02.41-.03.54-.06,1.1.08,1.54.3.91.44,1.53,1.17,1.85,1.93.33.77.3,1.57.13,2.2-.36,1.29-1.25,2.07-2.05,2.29-.81.21-1.43,0-1.78-.24-.35-.26-.45-.52-.51-.66-.04-.15-.05-.19-.05-.19,0,0,.02.04.08.18.07.13.2.36.54.57.34.2.92.34,1.64.1.69-.24,1.46-.98,1.74-2.16.13-.58.13-1.26-.18-1.92-.29-.65-.86-1.27-1.64-1.62-.4-.17-.81-.27-1.28-.21-.12,0-.24.02-.36.03-.12.02-.24.05-.35.08-.24.04-.47.15-.71.24-.92.42-1.75,1.26-2.16,2.38-.44,1.11-.46,2.48.04,3.76.15.31.28.64.49.93.18.31.42.59.65.87.51.54,1.12,1.01,1.83,1.35,1.43.69,3.21.87,5,.53.9-.17,1.8-.47,2.65-.92.86-.46,1.7-1.03,2.48-1.71,1.13-.98,2.1-2.13,2.94-3.36.85-1.24,1.64-2.59,2.84-3.73.69-.65,1.49-1.15,2.31-1.53.82-.39,1.67-.59,2.44-.71,1.57-.22,2.86.01,3.5.2.78.21,1.47.59,2.05.97.28.21.54.42.76.64.21.23.41.44.56.65.15.22.27.43.36.61.09.19.14.37.17.52.06.31.02.52-.12.62s-.36.1-.63.01c-.14-.04-.28-.11-.44-.18-.17-.07-.35-.15-.53-.25-.19-.09-.4-.18-.61-.29-.21-.1-.44-.2-.68-.31-.49-.18-1-.41-1.58-.56Z"/>
    <path class="cls-1" d="M284.29,40.39s.09-.12.25-.34c.17-.22.38-.55.63-.95.49-.82,1.05-1.99,1.41-3.29.37-1.29.55-2.69.56-3.82,0-1.13-.1-1.98-.14-2.2-.05-.38-.16-.7-.32-.95-.15-.26-.32-.45-.53-.57-.39-.25-.82-.27-1.18-.1-.36.16-.65.48-.77.87-.06.19-.09.41-.08.65,0,.12.03.24.06.37.03.13.07.27.12.41.07.17.34.81.58,1.74.24.93.41,2.15.39,3.38,0,1.23-.23,2.45-.48,3.34-.14.44-.25.81-.36,1.06-.1.25-.15.4-.15.4Z"/>
    <path class="cls-1" d="M285.9,39.67s.1-.07.28-.2c.18-.13.43-.32.73-.57.59-.5,1.34-1.24,1.99-2.12.66-.87,1.22-1.86,1.59-2.7.37-.84.57-1.5.62-1.68.09-.3.11-.57.06-.81-.04-.24-.13-.44-.26-.6-.26-.32-.64-.47-1.04-.47-.4,0-.78.13-1.06.38-.13.12-.25.27-.33.45-.07.18-.12.39-.12.63,0,.15.02.71-.05,1.48-.07.77-.25,1.75-.57,2.69-.3.94-.75,1.84-1.14,2.48-.2.32-.37.58-.5.76-.13.18-.2.28-.2.28Z"/>
  </g>
  <rect class="cls-1" x="312.41" y="36.09" width="121.73" height="2.32" rx="1.16" ry="1.16" transform="translate(746.54 74.5) rotate(180)"/>
  <g>
    <g>
      <path class="cls-1" d="M193.99,38.88c.24.03.58.09.98.29.39.2.83.54,1.13,1.07.15.26.27.56.33.89.02.16.04.33.04.51-.01.18-.05.38-.07.58-.14.77-.52,1.53-1.22,2.05-1.21.96-3.1,1.2-4.76.75-1.69-.42-3.12-1.69-3.88-3.29-.55-1.12-.75-2.35-.76-3.53.02-1.19.27-2.34.69-3.38.42-1.04,1.02-1.96,1.78-2.67.76-.72,1.65-1.23,2.58-1.56,1.87-.64,3.83-.58,5.52-.14,1.7.45,3.17,1.25,4.33,2.24,1.17.99,2.05,2.13,2.83,3.22.78,1.09,1.44,2.15,2.17,3.05.72.91,1.51,1.66,2.34,2.19.21.12.42.24.63.35.21.11.43.17.64.26.41.18.82.26,1.21.35,1.54.36,2.83.3,3.79.1.96-.2,1.61-.54,2.04-.82.43-.29.65-.52.78-.65.13-.14.16-.19.16-.19,0,0-.04.05-.18.17-.14.12-.38.33-.82.58-.44.25-1.08.54-2.02.69-.93.14-2.17.16-3.65-.24-.37-.11-.77-.2-1.14-.37-.19-.09-.4-.15-.59-.26-.19-.11-.38-.23-.58-.35-.76-.52-1.49-1.24-2.17-2.13-.69-.89-1.33-1.95-2.1-3.07-.77-1.12-1.66-2.32-2.88-3.39-1.22-1.07-2.78-1.94-4.59-2.44-1.8-.49-3.9-.59-5.97.1-4.28,1.24-7.16,7.11-4.83,12.28.43.9,1.03,1.73,1.78,2.4.73.68,1.65,1.21,2.6,1.52.96.31,1.96.45,2.98.4,1.01-.06,2.05-.31,2.97-.87,1.08-.61,1.87-1.73,2.2-2.87.07-.29.15-.56.2-.86.04-.3.05-.61.04-.91-.03-.6-.18-1.17-.41-1.67-.22-.5-.52-.94-.85-1.31-.33-.37-.7-.65-1.06-.88-.73-.45-1.42-.61-1.9-.68-1.2-.14-2.32.25-3.09.83-.78.58-1.27,1.32-1.5,1.98-.23.67-.23,1.25-.12,1.62.11.38.28.56.45.55.36-.01.61-.68,1.23-1.32.58-.66,1.67-1.31,2.72-1.17Z"/>
      <path class="cls-1" d="M192.76,34.48c.47-.14,1.39-.41,2.59-.4.6.02,1.27.08,1.94.29.67.21,1.37.5,2,.94,1.11.77,2.04,1.94,2.99,3.14.96,1.21,2.02,2.38,3.22,3.4.84.72,1.73,1.33,2.66,1.81.94.49,1.92.81,2.9.99,1.95.35,3.91.15,5.52-.65.8-.4,1.49-.94,2.06-1.56.27-.32.53-.64.73-.99.23-.33.38-.71.54-1.06.55-1.47.5-3.03-.02-4.29-.5-1.27-1.48-2.23-2.56-2.7-.28-.1-.54-.22-.82-.26-.14-.03-.27-.06-.41-.08-.14,0-.27-.02-.41-.03-.54-.06-1.1.08-1.54.3-.91.44-1.53,1.17-1.85,1.93-.33.77-.3,1.57-.13,2.2.36,1.29,1.25,2.07,2.05,2.29.81.21,1.43,0,1.78-.24.35-.26.45-.52.51-.66.04-.15.05-.19.05-.19,0,0-.02.04-.08.18-.07.13-.2.36-.54.57-.34.2-.92.34-1.64.1-.69-.24-1.46-.98-1.74-2.16-.13-.58-.13-1.26.18-1.92.29-.65.86-1.27,1.64-1.62.4-.17.81-.27,1.28-.21.12,0,.24.02.36.03.12.02.24.05.35.08.24.04.47.15.71.24.92.42,1.75,1.26,2.16,2.38.44,1.11.46,2.48-.04,3.76-.15.31-.28.64-.49.93-.18.31-.42.59-.65.87-.51.54-1.12,1.01-1.83,1.35-1.43.69-3.21.87-5,.53-.9-.17-1.8-.47-2.65-.92-.86-.46-1.7-1.03-2.48-1.71-1.13-.98-2.1-2.13-2.94-3.36-.85-1.24-1.64-2.59-2.84-3.73-.69-.65-1.49-1.15-2.31-1.53-.82-.39-1.67-.59-2.44-.71-1.57-.22-2.86.01-3.5.2-.78.21-1.47.59-2.05.97-.28.21-.54.42-.76.64-.21.23-.41.44-.56.65-.15.22-.27.43-.36.61-.09.19-.14.37-.17.52-.06.31-.02.52.12.62s.36.1.63.01c.14-.04.28-.11.44-.18.17-.07.35-.15.53-.25.19-.09.4-.18.61-.29.21-.1.44-.2.68-.31.49-.18,1-.41,1.58-.56Z"/>
      <path class="cls-1" d="M211.24,40.39s-.09-.12-.25-.34c-.17-.22-.38-.55-.63-.95-.49-.82-1.05-1.99-1.41-3.29-.37-1.29-.55-2.69-.56-3.82,0-1.13.1-1.98.14-2.2.05-.38.16-.7.32-.95.15-.26.32-.45.53-.57.39-.25.82-.27,1.18-.1.36.16.65.48.77.87.06.19.09.41.08.65,0,.12-.03.24-.06.37-.03.13-.07.27-.12.41-.07.17-.34.81-.58,1.74-.24.93-.41,2.15-.39,3.38,0,1.23.23,2.45.48,3.34.14.44.25.81.36,1.06.1.25.15.4.15.4Z"/>
      <path class="cls-1" d="M209.63,39.67s-.1-.07-.28-.2c-.18-.13-.43-.32-.73-.57-.59-.5-1.34-1.24-1.99-2.12-.66-.87-1.22-1.86-1.59-2.7-.37-.84-.57-1.5-.62-1.68-.09-.3-.11-.57-.06-.81.04-.24.13-.44.26-.6.26-.32.64-.47,1.04-.47.4,0,.78.13,1.06.38.13.12.25.27.33.45.07.18.12.39.12.63,0,.15-.02.71.05,1.48.07.77.25,1.75.57,2.69.3.94.75,1.84,1.14,2.48.2.32.37.58.5.76.13.18.2.28.2.28Z"/>
    </g>
    <rect class="cls-1" x="61.39" y="37.57" width="121.73" height="2.32" rx="1.16" ry="1.16"/>
  </g>
  <g>
    <g>
      <rect class="cls-1" x="441.81" y="34.09" width="6.92" height="6.92" rx="1.09" ry="1.09" transform="translate(103.87 325.85) rotate(-45)"/>
      <rect class="cls-1" x="451.37" y="34.52" width="5.97" height="5.97" rx=".94" ry=".94" transform="translate(106.56 332.26) rotate(-45)"/>
      <rect class="cls-1" x="460.92" y="34.95" width="5.03" height="5.03" rx=".79" ry=".79" transform="translate(109.25 338.67) rotate(-45)"/>
      <rect class="cls-1" x="470.47" y="35.38" width="4.08" height="4.08" rx=".64" ry=".64" transform="translate(111.93 345.08) rotate(-45)"/>
      <rect class="cls-1" x="480.02" y="35.82" width="3.13" height="3.13" rx=".49" ry=".49" transform="translate(114.62 351.48) rotate(-45)"/>
    </g>
    <rect class="cls-1" x="415.21" y="36.66" width="25.04" height="1.63" transform="translate(855.46 74.95) rotate(-180)"/>
    <path class="cls-1" d="M432.63,37.1c.29-.12.54-.34.77-.56.89-.85,1.61-1.93,1.83-3.14s-.13-2.56-1.06-3.36-2.47-.89-3.37-.05-.81,2.56.27,3.16c.38.21.87.27,1.24.05s.56-.76.31-1.12c.59.32.74,1.16.45,1.76s-.94.97-1.59,1.1c-1.44.3-3.04-.46-3.72-1.77-.47-.91-.5-2-.26-2.99.16-.66.44-1.3.85-1.84,1.25-1.66,3.7-2.24,5.61-1.43,1.92.81,3.19,2.87,3.2,4.95s-1.19,4.09-2.95,5.2"/>
    <path class="cls-1" d="M430.81,37.6c.32,0,.63.11.92.23,1.14.47,2.2,1.2,2.85,2.25s.82,2.43.25,3.52-1.97,1.73-3.12,1.28-1.69-2.08-.91-3.04c.28-.34.71-.57,1.14-.5s.8.5.7.93c.43-.52.27-1.35-.23-1.8s-1.23-.55-1.89-.44c-1.45.25-2.66,1.54-2.81,3.01-.1,1.02.27,2.04.86,2.88.39.56.89,1.04,1.47,1.4,1.77,1.09,4.26.73,5.75-.73,1.48-1.46,1.91-3.84,1.15-5.78s-2.61-3.37-4.65-3.76"/>
  </g>
  <g>
    <g>
      <rect class="cls-1" x="51" y="35.26" width="6.92" height="6.92" rx="1.09" ry="1.09" transform="translate(-11.43 49.85) rotate(-45)"/>
      <rect class="cls-1" x="42.4" y="35.77" width="5.97" height="5.97" rx=".94" ry=".94" transform="translate(-14.12 43.44) rotate(-45)"/>
      <rect class="cls-1" x="33.79" y="36.29" width="5.03" height="5.03" rx=".79" ry=".79" transform="translate(-16.8 37.03) rotate(-45)"/>
      <rect class="cls-1" x="25.18" y="36.8" width="4.08" height="4.08" rx=".64" ry=".64" transform="translate(-19.49 30.63) rotate(-45)"/>
      <rect class="cls-1" x="16.58" y="37.31" width="3.13" height="3.13" rx=".49" ry=".49" transform="translate(-22.18 24.22) rotate(-45)"/>
    </g>
    <rect class="cls-1" x="59.48" y="37.97" width="25.04" height="1.63"/>
    <path class="cls-1" d="M67.11,39.16c-.29.12-.54.34-.77.56-.89.85-1.61,1.93-1.83,3.14s.13,2.56,1.06,3.36,2.47.89,3.37.05.81-2.56-.27-3.16c-.38-.21-.87-.27-1.24-.05s-.56.76-.31,1.12c-.59-.32-.74-1.16-.45-1.76s.94-.97,1.59-1.1c1.44-.3,3.04.46,3.72,1.77.47.91.5,2,.26,2.99-.16.66-.44,1.3-.85,1.84-1.25,1.66-3.7,2.24-5.61,1.43s-3.19-2.87-3.2-4.95,1.19-4.09,2.95-5.2"/>
    <path class="cls-1" d="M68.92,38.66c-.32,0-.63-.11-.92-.23-1.14-.47-2.2-1.2-2.85-2.25s-.82-2.43-.25-3.52,1.97-1.73,3.12-1.28,1.69,2.08.91,3.04c-.28.34-.71.57-1.14.5s-.8-.5-.7-.93c-.43.52-.27,1.35.23,1.8s1.23.55,1.89.44c1.45-.25,2.66-1.54,2.81-3.01.1-1.02-.27-2.04-.86-2.88-.39-.56-.89-1.04-1.47-1.4-1.77-1.09-4.26-.73-5.75.73s-1.91,3.84-1.15,5.78,2.61,3.37,4.65,3.76"/>
  </g>
</svg>