<?xml version="1.0" encoding="UTF-8"?>
<svg id="Layer_1" data-name="Layer 1" xmlns="http://www.w3.org/2000/svg" viewBox="0 0 100 100">
  <defs>
    <style>
      .cls-1 {
        stroke-width: 0px;
      }
    </style>
  </defs>
  <path class="cls-1" d="M2.48,47.87c.26-1.99.39-4.01.8-5.98C7.2,23,18.27,10.2,36.72,4.6c20.94-6.36,42.57,2.36,54.02,21.03,10.53,17.17,8.65,39.85-4.56,55.15-7.91,9.16-17.85,14.59-29.8,16.38-.64.1-1.29.2-1.93.31h-8.97c-1.93-.35-3.89-.58-5.78-1.08-19.4-5.08-31.49-17.38-36.17-36.89-.56-2.33-.71-4.76-1.05-7.14,0-1.49,0-2.99,0-4.48ZM92.21,50.03c0-23.21-18.95-42.28-42.17-42.2-23,.08-42.11,18.36-42.21,42.06-.1,24.13,19.59,42.39,42.13,42.35,23.39-.04,42.24-18.84,42.25-42.21Z"/>
  <path class="cls-1" d="M49.61,65.91c-1.36,0-2.73-.06-4.09.02-1.22.07-1.56-.45-1.65-1.6-.53-6.91,1.94-12.42,7.44-16.64,1.88-1.44,3.63-3.05,5.41-4.62,3.41-3.01,2.45-8.39-1.96-10.24-5.07-2.12-12.07-.96-13.95,7.18-.27,1.16-.8,1.41-1.8,1.28-2.96-.37-5.92-.72-8.88-1.09-1-.12-1.12-.8-1.03-1.63.55-5.63,3.38-9.91,7.96-13.04,4.88-3.34,10.41-3.92,16.14-3.38,4.19.4,8.07,1.65,11.39,4.33,4.12,3.32,6.56,7.52,6.43,12.95-.08,3.19-1.23,6.05-3.39,8.36-2.15,2.3-4.52,4.41-6.8,6.59-.41.39-.85.76-1.31,1.11-2.92,2.19-4.48,5-4.03,8.74.15,1.27-.4,1.75-1.65,1.69-1.4-.07-2.81-.02-4.22-.01Z"/>
  <path class="cls-1" d="M50.23,67.84c1.27,0,2.54.03,3.82,0,.89-.03,1.32.34,1.31,1.22-.01,2.63-.03,5.26-.03,7.89,0,.84-.43,1.19-1.21,1.19-2.63,0-5.26,0-7.9,0-.82,0-1.19-.45-1.19-1.24,0-2.63-.01-5.26,0-7.9,0-.81.44-1.17,1.25-1.16,1.32.02,2.63,0,3.95,0Z"/>
</svg>