<?xml version="1.0" encoding="UTF-8"?>
<svg id="Layer_1" data-name="Layer 1" xmlns="http://www.w3.org/2000/svg" viewBox="0 0 100 100">
  <defs>
    <style>
      .cls-1 {
        stroke-width: 0px;
      }
    </style>
  </defs>
  <path class="cls-1" d="M49.7,84.37c-14.25,0-28.49,0-42.74,0-3.07,0-5.56-2.56-5.55-5.68,0-12.88,0-25.77,0-38.65,0-6.26-.01-12.52,0-18.78,0-3.19,2.51-5.63,5.7-5.63,17.44,0,34.88,0,52.32,0,6.32,0,12.63,0,18.95,0,4.7,0,9.4,0,14.1,0,2.96,0,5.51,2.55,5.51,5.49,0,10.21,0,20.42,0,30.63,0,9.01,0,18.01,0,27.02,0,3.11-2.48,5.6-5.61,5.6-14.23,0-28.46,0-42.69,0h0ZM49.74,20.68c-9.8,0-19.59,0-29.39,0-4.32,0-8.65,0-12.97,0-.67,0-.9.22-.9.84,0,11.86,0,23.72,0,35.58,0,.29.13.64.32.85,1.05,1.15,2.11,2.3,3.22,3.39,2,1.97,4.09,3.83,6.64,5.08,2.05,1,4.18,1.38,6.33.44,1.32-.58,2.62-1.26,3.8-2.09,2.85-2,5.17-4.58,7.52-7.13,2.94-3.19,5.84-6.42,8.83-9.57,2.01-2.11,4.26-3.95,6.88-5.29,3.38-1.72,6.7-1.63,10.02.18,2.76,1.5,5.11,3.53,7.24,5.79,3.66,3.87,7.2,7.85,10.82,11.75,1.77,1.91,3.72,3.64,5.92,5.06,1.36.87,2.8,1.6,4.41,1.74,1.33.11,2.68-.03,4.02-.04.42,0,.5-.17.5-.55,0-15.02,0-30.04,0-45.06,0-.77-.19-.96-.95-.96-1.72,0-3.45,0-5.17,0-6.84,0-13.67,0-20.51,0-5.53,0-11.05,0-16.58,0Z"/>
  <path class="cls-1" d="M69.97,38.1c0-4.34,3.54-7.88,7.88-7.87,4.28,0,7.83,3.58,7.83,7.88,0,4.32-3.58,7.92-7.87,7.9-4.35-.02-7.84-3.55-7.84-7.91Z"/>
</svg>