<?xml version="1.0" encoding="UTF-8"?>
<svg id="Layer_1" data-name="Layer 1" xmlns="http://www.w3.org/2000/svg" viewBox="0 0 100 100">
  <defs>
    <style>
      .cls-1 {
        stroke-width: 0px;
      }
    </style>
  </defs>
  <path class="cls-1" d="M82.14,23.46c1.34.87,2.62,1.66,3.86,2.52,1.98,1.37,2.47,3.23,1.47,5.41-.33.72-.69,1.43-1.1,2.11-1.98,3.31-2.03,6.61-.08,9.97.62,1.07,1.14,2.22,1.52,3.4.48,1.5,0,2.85-1.22,3.84-.75.61-1.58,1.13-2.41,1.63-2.52,1.51-4.43,3.48-5,6.48-.14.74-.15,1.5-.2,2.25-.08,1.01-.1,2.02-.23,3.02-.25,2.01-1.11,2.89-3.11,3.14-1.4.17-2.81.23-4.21.36-3.34.31-5.86,1.91-7.53,4.84-.41.72-.85,1.44-1.33,2.11-1.41,1.98-3.41,2.47-5.59,1.38-1.21-.6-2.4-1.23-3.62-1.8-2.43-1.13-4.82-1.07-7.2.21-1.36.73-2.76,1.4-4.19,1.96-1.49.58-3.11.09-4.04-1.07-.28-.35-.49-.77-.7-1.17-1.15-2.14-2.62-3.98-4.76-5.21-1.69-.97-3.51-1.43-5.45-1.49-.58-.02-1.16-.05-1.73,0-2.54.22-3.89-1.59-4.11-3.6-.12-1.12-.06-2.25-.12-3.38-.18-3.56-1.98-6.11-4.95-7.92-.47-.29-.97-.55-1.46-.8-2.39-1.22-3.17-3.15-2.19-5.65.5-1.27,1.17-2.47,1.79-3.69,1.25-2.45,1.27-4.91.07-7.37-.55-1.12-1.14-2.22-1.68-3.35-.43-.9-.73-1.83-.59-2.87.17-1.26.84-2.15,1.97-2.72,1.93-.98,3.68-2.2,5-3.96,1.66-2.21,2.23-4.74,2.16-7.45-.01-.59-.07-1.2.03-1.78.31-1.9,1.54-2.95,3.52-3.07,1.09-.06,2.19,0,3.27-.11,4.1-.42,7.02-2.61,8.97-6.17.47-.85.87-1.78,1.74-2.3.42-.25.93-.39,1.42-.47,1.38-.22,2.56.25,3.74,1,1.78,1.14,3.76,1.78,5.89,1.84,2.38.07,4.58-.6,6.51-1.94,1.21-.83,2.46-1.1,3.82-.89.58.09,1.19.48,1.62.9.6.59,1.12,1.29,1.54,2.02,1.09,1.9,2.54,3.44,4.3,4.71,1.55,1.12,2.47,1.1,3.84-.22,1.5-1.45,3.25-2.33,5.34-2.48,4.33-.3,8.52,2.46,9.54,6.95.72,3.18-.27,5.9-2.24,8.36-.63.79-1.23,1.6-1.89,2.46ZM66.54,14.14c-.3-.21-.55-.4-.81-.57-5.23-3.33-10.95-4.81-17.14-4.55-2.71.12-5.36.58-7.93,1.44-6.47,2.16-11.56,6.16-15.34,11.8-4.38,6.54-5.88,13.76-4.51,21.51.95,5.33,3.23,10.09,6.86,14.11,8.07,8.94,18.05,12.14,29.76,9.29,6.41-1.56,11.77-5.07,15.8-10.35,5.44-7.13,7.57-15.13,5.74-24.02-.25-1.21-.72-2.37-1.11-3.65-1.21,1.28-1.96,2.44-1.56,4.21.66,2.9.75,5.87.38,8.83-.55,4.46-2.21,8.49-4.88,12.11-4.98,6.76-11.71,10.44-20.04,11.14-3.31.28-6.58-.14-9.76-1.14-6.93-2.19-12.18-6.53-15.7-12.83-3.59-6.42-4.13-13.31-2.21-20.35,1.49-5.47,4.63-9.93,9.04-13.48,4.86-3.92,10.42-6.02,16.68-6.03,4.39,0,8.56,1.07,12.48,3.05.91.46,1.8.98,2.72,1.49.51-.67.99-1.31,1.51-2ZM49.84,41.74c-.15-.18-.27-.31-.38-.45-2.47-3.04-4.94-6.07-7.41-9.11-2.8-3.45-6.9-2.33-8.68-.12-1.61,1.99-1.54,4.92.23,7.14,2.86,3.56,5.73,7.11,8.62,10.65,1.28,1.57,2.52,3.18,3.94,4.62,2.06,2.11,4.76,2.26,7.05.51.68-.52,1.3-1.17,1.83-1.86,6.78-8.84,13.54-17.7,20.3-26.55,2.24-2.94,4.56-5.82,6.68-8.84,2.76-3.92-.29-8.03-3.58-8.53-2.34-.36-4.15.65-5.54,2.45-5.27,6.84-10.51,13.71-15.77,20.56-2.41,3.15-4.83,6.3-7.29,9.51Z"/>
  <path class="cls-1" d="M39.24,99.26c-1.5-1.47-2.99-2.91-4.45-4.36-1.06-1.05-2.12-2.1-3.14-3.18-.88-.93-1.92-1.32-3.2-1.25-3.25.16-6.51.28-9.76.42-.24,0-.47,0-.81,0,.14-.47.23-.88.39-1.28,2.41-6.16,4.84-12.31,7.24-18.48.32-.81.89-1.15,1.72-1.22,3.05-.25,5.28.99,6.8,3.64.63,1.09,1.29,2.22,2.17,3.1,2.22,2.24,4.92,2.47,7.76,1.34,1.51-.6,2.95-1.34,4.47-2.04-3.06,7.77-6.13,15.56-9.18,23.31Z"/>
  <path class="cls-1" d="M82.25,90.91c-1.65-.07-3.2-.12-4.74-.2-2.04-.1-4.08-.2-6.12-.33-1.17-.07-2.11.35-2.95,1.14-2.49,2.34-5,4.66-7.51,6.98-.09.08-.18.16-.35.31-3.01-7.64-6.01-15.23-9.06-22.96.81.41,1.5.79,2.21,1.1,1.17.52,2.32,1.18,3.55,1.48,3.01.74,5.82-.46,7.59-3.09.65-.97,1.27-1.97,1.92-2.94,1.21-1.84,4.26-3.05,6.41-2.61.62.13.95.48,1.17,1.04,1.13,2.88,2.28,5.74,3.41,8.62,1.42,3.61,2.84,7.22,4.26,10.84.06.16.12.33.23.61Z"/>
  <path class="cls-1" d="M49.9,46c1.45-1.9,2.85-3.72,4.25-5.55,6.92-9.03,13.85-18.06,20.77-27.09.56-.73,1.25-1.3,2.18-1.45,1.05-.17,1.98.13,2.65.99.69.88.75,1.93.25,2.87-.52.99-1.22,1.9-1.91,2.79-8.52,11.11-17.05,22.21-25.57,33.31-.15.19-.3.37-.45.55-1.21,1.4-2.8,1.47-4.07.12-.9-.95-1.75-1.96-2.58-2.97-3.21-3.94-6.42-7.89-9.61-11.85-.69-.86-1.14-1.82-.86-2.97.4-1.64,2.26-2.55,3.75-1.75.66.36,1.29.88,1.77,1.46,3.02,3.66,6,7.36,8.99,11.04.12.15.26.29.44.49Z"/>
</svg>