<?xml version="1.0" encoding="UTF-8"?>
<svg id="Layer_1" data-name="Layer 1" xmlns="http://www.w3.org/2000/svg" viewBox="0 0 100 100">
  <defs>
    <style>
      .cls-1 {
        stroke-width: 0px;
      }
    </style>
  </defs>
  <path class="cls-1" d="M2.67,21.3c.99-4.43,4.45-6.37,9.13-5.44,0,1.06-.05,2.16,0,3.25.16,3.17,2.82,5.55,6.09,5.52,3.07-.04,5.75-2.65,5.83-5.7.03-1.05,0-2.1,0-3.22h36.25c0,1.08-.03,2.09,0,3.09.1,3.36,2.71,5.86,6.09,5.83,3.21-.02,5.81-2.64,5.87-5.94.02-.96,0-1.92,0-2.85,5.29-1.12,9.11,1.92,9.12,7.17.02,7.16,0,14.31,0,21.47v1.16h-6.01v-11.78H8.81c-.02.42-.06.86-.06,1.3,0,13.02.02,26.04-.03,39.06,0,1.32.35,1.72,1.7,1.71,10.9-.05,21.79-.03,32.69-.03h1.61v6.07c-.53,0-1.02,0-1.51,0-10.76,0-21.52,0-32.27,0-4.8,0-6.52-1.15-8.26-5.52V21.3Z"/>
  <path class="cls-1" d="M72.78,100c-2.89-.87-5.97-1.36-8.65-2.67-14.25-6.98-17.67-25.97-6.92-37.64,8.74-9.49,22.97-10.58,32.99-2.52,11.38,9.15,11.9,26.58,1.11,36.42-3.79,3.46-8.17,5.6-13.29,6.18-.36.04-.72.16-1.08.24h-4.16ZM93.03,76.11c.06-10-7.85-18.2-17.61-18.25-10.29-.05-18.34,7.79-18.48,17.82-.13,9.91,7.94,18.19,17.77,18.24,10.15.05,18.26-7.83,18.31-17.82Z"/>
  <path class="cls-1" d="M26.72,57.94v11.78h-11.93v-11.78h11.93Z"/>
  <path class="cls-1" d="M32.92,51.67v-11.88h11.82v11.88h-11.82Z"/>
  <path class="cls-1" d="M26.66,51.7h-11.86v-11.86h11.86v11.86Z"/>
  <path class="cls-1" d="M51.01,39.78h11.8v11.91h-11.8v-11.91Z"/>
  <path class="cls-1" d="M44.77,57.95v11.77h-11.82v-11.77h11.82Z"/>
  <path class="cls-1" d="M20.71,12.64c0,1.98.02,3.96,0,5.94-.02,1.71-1.19,2.95-2.75,3.01-1.82.07-3.15-1.02-3.18-2.87-.07-4.05-.07-8.11,0-12.16.04-1.87,1.39-3.06,3.1-2.99,1.65.07,2.81,1.4,2.82,3.26.01,1.93,0,3.87,0,5.81h0Z"/>
  <path class="cls-1" d="M68.92,12.72c0,1.93.01,3.87,0,5.8-.02,1.81-1.16,3.04-2.83,3.08-1.77.04-3.08-1.11-3.11-2.96-.06-4.01-.06-8.02.01-12.02.03-1.85,1.38-3.08,3.06-3.04,1.66.04,2.87,1.36,2.89,3.21.02,1.98,0,3.96,0,5.94,0,0-.01,0-.02,0Z"/>
  <path class="cls-1" d="M74.99,75.9c2.92,0,5.68,0,8.44,0,2.23,0,3.6,1.12,3.61,2.92,0,1.9-1.38,3.13-3.59,3.14-3.65.01-7.29.02-10.94,0-2.36-.01-3.57-1.25-3.57-3.61-.01-3.65-.01-7.29,0-10.94,0-2.18,1.3-3.6,3.18-3.56,1.73.04,2.88,1.44,2.88,3.53,0,2.77,0,5.53,0,8.52Z"/>
</svg>