<?xml version="1.0" encoding="UTF-8"?>
<svg id="Layer_1" data-name="Layer 1" xmlns="http://www.w3.org/2000/svg" viewBox="0 0 100 100">
  <defs>
    <style>
      .cls-1 {
        stroke-width: 0px;
      }
    </style>
  </defs>
  <path class="cls-1" d="M45.21,98.85c-5.07-2.71-10.42-5-15.16-8.2-12.64-8.52-20-20.9-24.34-35.24C1.9,42.77,1,29.75,1.08,16.63c0-.56.1-1.12.18-1.97.88,0,1.71-.02,2.53,0,14.95.4,28.45-3.82,40.4-12.84,1.1-.83,1.79-.56,2.78.05,9.15,5.66,18.71,10.45,29.36,12.5,4.32.83,8.77.98,13.5,1.48.66,11.93-.02,24.17-3.15,36.37-1.92-.43-3.82-.85-5.92-1.32,2.21-9.91,3.04-19.95,2.43-30.28-7.18.37-13.95-.73-20.3-3.45-5.49-2.35-10.71-5.32-16.08-7.94-.63-.31-1.73-.49-2.19-.16-10.63,7.88-22.53,11.47-35.73,10.83-.27-.01-.54.07-1.04.15-.28,17.37,1.41,34.22,10.28,49.22,3.99-1.5,7.84-2.75,11.51-4.39,2.56-1.15,4.92-2.76,7.27-4.31,1.11-.73,1.15-1.68.19-2.86-2.16-2.66-4.22-5.41-6.13-8.25-1.91-2.83-1.72-3.65.48-6.34.31-.38.38-1.03.39-1.55.03-1.57.03-3.15-.05-4.72-.26-5.39,2.35-8.88,7.07-11.15.92-.44,1.86-1.37,2.24-2.3.58-1.42,1.53-1.63,2.71-1.39,5.16,1.05,9.76,3.23,13.42,7.09,1.71,1.81,2.62,4.05,2.58,6.62-.03,1.86,0,3.72-.04,5.58-.02,1.07.26,1.82.97,2.78.68.91.71,3.01.1,4.04-1.9,3.25-4.09,6.37-6.46,9.3-1.3,1.6-1.13,2.72.29,3.71,2.2,1.54,4.54,2.87,7.38,4.64-.75,1.45-1.76,3.15-2.53,4.95-.63,1.48-1.31,3.06-1.37,4.62-.17,5.01-.17,10.03-.01,15.03.06,1.87-.57,2.86-2.18,3.62-3.34,1.56-6.62,3.25-9.92,4.88h-.86Z"/>
  <path class="cls-1" d="M64.97,98.85c-.48-.95-1.36-1.9-1.38-2.86-.12-6.8-.02-13.6-.09-20.4-.02-1.99.99-2.83,2.72-3.04-.09-10.85,6.95-16.06,13.75-15.96,7.93.12,12.57,5.56,13.43,15.48,1.12.88,2.02,1.59,2.93,2.3v24.49h-31.36ZM89.04,72.59c.48-4.8-.85-8.56-5.04-10.92-3.14-1.77-6.92-1.35-9.81,1.03-3.14,2.59-4.11,5.95-3.48,9.89h18.32ZM83.9,92.76c-.59-1.67-1.21-3.11-1.56-4.61-.15-.66.05-1.62.47-2.15,1.59-2.02,1.6-4.56-.15-6.14-1.65-1.5-4.22-1.43-5.8.14-1.69,1.7-1.56,4.12.15,6.14.41.49.57,1.46.41,2.11-.37,1.49-1,2.91-1.57,4.5h8.04Z"/>
</svg>