<?xml version="1.0" encoding="UTF-8"?>
<svg id="Layer_1" data-name="Layer 1" xmlns="http://www.w3.org/2000/svg" viewBox="0 0 100 100">
  <defs>
    <style>
      .cls-1 {
        stroke-width: 0px;
      }
    </style>
  </defs>
  <path class="cls-1" d="M33.23,100c-.21-.03-.41-.08-.62-.08-4.16-.03-8.32-.05-12.48-.08-.63,0-1.25-.05-1.88-.06-.85-.02-1.19-.3-1.26-1.13-.14-1.95.06-3.85.79-5.69.98-2.48,2.81-4.15,5.05-5.44,2.47-1.43,5.16-2.38,7.78-3.46,1.22-.5,2.43-1.04,3.64-1.59,1.78-.81,2.65-2.2,2.64-4.16,0-1.18.04-2.37.03-3.55,0-.25-.11-.52-.25-.73-.88-1.41-1.95-2.73-2.4-4.35-.34-1.24-.51-2.52-.72-3.79-.09-.56-.18-1.12-.65-1.48-1.34-1-1.71-2.46-1.93-3.99-.07-.48-.15-.96-.14-1.44.03-1.18.02-1.88,1.67-1.92,0-.27-.01-.55,0-.83.1-1.82.01-3.68.33-5.46.85-4.7,4.39-7.68,8.79-8.24,2.24-.29,4.52-.3,6.71.39,4.01,1.27,6.29,4.13,7.03,8.17.3,1.66.19,3.39.26,5.09.01.28,0,.57,0,.84.07.03.1.07.13.06,1.09-.03,1.61.23,1.55,1.78-.05,1.16-.32,2.34-.64,3.46-.17.59-.55,1.19-1,1.61-.72.67-1.15,1.4-1.17,2.37-.04,2.81-1.25,5.18-2.84,7.4-.34.48-.49.96-.46,1.54.06,1.25.08,2.51.1,3.76.03,1.61.96,2.66,2.3,3.3,2.08.98,4.22,1.84,6.35,2.73,2.13.89,4.26,1.76,6.21,3.03,3.91,2.54,5.34,6.23,4.96,10.74-.06.69-.42.98-1.15.99-4.82.05-9.65.09-14.47.14-.21,0-.41.05-.62.08h-21.64Z"/>
  <path class="cls-1" d="M1.69,8.49c.19-.34.4-.66.55-1.01.93-2.08,2.47-3.53,4.63-4.2.93-.29,1.98-.26,2.97-.27,4.86-.03,9.72-.03,14.58-.04,4.2-.01,8.4-.03,12.59-.03,7.54-.01,15.07-.02,22.61-.02,4.09,0,8.18.01,12.27.02,6.89.01,13.77.03,20.66.05.16,0,.34-.02.48.04,2.06.87,3.85,2.04,4.86,4.16.46.96.71,1.89.7,2.97-.04,5.22-.06,10.44.01,15.66.02,1.39-.42,2.53-1.06,3.68-1.03,1.83-2.74,2.78-4.57,3.56-.2.09-.46.07-.69.08-4.07.04-8.14.08-12.21.1-.36,0-.59.12-.84.36-3.56,3.54-7.13,7.07-10.71,10.59-.33.33-.71.61-1.07.9-.38.3-.81.33-1.2.09-.46-.28-.96-.52-.96-1.22.02-3.35,0-6.71,0-10.07,0-.19,0-.39,0-.69-.47,0-.91,0-1.35,0-3.08,0-6.16,0-9.24,0-14.76-.02-29.52-.05-44.29-.07-.41,0-.82,0-1.24,0-3.24.07-5.36-1.62-6.83-4.33-.23-.42-.44-.84-.66-1.26,0-6.35,0-12.7,0-19.06ZM68.33,40.08c.22-.19.35-.3.47-.42,3.05-3.04,6.1-6.07,9.14-9.12.26-.26.52-.37.89-.37,4.04-.01,8.07-.03,12.11-.08.58,0,1.25.02,1.74-.24,1.59-.84,2.86-1.99,2.86-4,0-5.22,0-10.43,0-15.65,0-.79-.11-1.58-.71-2.19-.44-.45-.87-.9-1.33-1.32-.43-.4-.95-.6-1.56-.6-4.41-.04-8.82-.13-13.23-.15-6.56-.03-13.13-.04-19.69-.03-13.11.01-26.21.03-39.32.07-3.87.01-7.74.1-11.61.15-.18,0-.39-.01-.52.07-1.39.87-2.76,1.83-2.78,3.68-.05,5.3-.02,10.61-.05,15.92,0,1.13.37,2.06,1.17,2.83.64.62,1.27,1.3,2.23,1.38.95.08,1.9.09,2.85.1,6.43.03,12.87.07,19.3.07,12.2.01,24.4,0,36.6,0,.75,0,1.45.7,1.45,1.44,0,2.78,0,5.56,0,8.46Z"/>
  <path class="cls-1" d="M40.53,15.62c-.95.86-1.75,1.69-2.66,2.37-1.01.76-1.33,1.58-.91,2.83.36,1.05.46,2.19.71,3.45-.38-.2-.6-.29-.8-.41-1.06-.64-2.12-1.27-3.15-1.95-.33-.22-.55-.17-.86.02-1.17.73-2.36,1.42-3.54,2.13-.09.05-.19.09-.42.19.19-.95.35-1.8.52-2.64.12-.63.29-1.25.36-1.89.03-.24-.06-.58-.22-.75-1.05-1.05-2.14-2.06-3.22-3.08-.06-.06-.16-.07-.24-.11.03-.06.06-.11.08-.17,1.04-.11,2.08-.23,3.12-.34.43-.05.86-.08,1.28-.12.38-.04.66-.2.82-.58.49-1.19,1.01-2.37,1.53-3.54.1-.24.23-.46.4-.8.51,1.2,1.09,2.27,1.41,3.4.37,1.28,1.19,1.61,2.37,1.66,1.1.04,2.19.21,3.42.33Z"/>
  <path class="cls-1" d="M43.06,15.6c1.05-.11,2.09-.22,3.14-.33.43-.04.85-.08,1.28-.12.36-.04.61-.19.76-.56.5-1.21,1.03-2.4,1.55-3.59.08-.18.17-.35.32-.66.23.44.42.76.56,1.09.46,1.03.88,2.08,1.36,3.09.11.23.41.48.65.52,1.14.18,2.3.3,3.45.44.36.04.73.1,1.21.17-.91.83-1.72,1.57-2.53,2.32-1.32,1.22-1.31,1.22-.93,3.01.18.84.34,1.68.5,2.52.04.19.04.38.08.69-.51-.27-.93-.47-1.32-.7-.85-.5-1.7-1-2.52-1.55-.36-.23-.61-.2-.96,0-1.16.7-2.35,1.37-3.53,2.05-.07.04-.16.06-.37.15.15-.8.26-1.51.4-2.22.15-.72.31-1.43.48-2.14.09-.36.02-.65-.27-.91-1.07-.98-2.12-1.98-3.18-2.97-.06-.06-.15-.09-.23-.13.03-.06.06-.12.08-.18Z"/>
  <path class="cls-1" d="M71.21,24.24c-1.11-.68-2.26-1.3-3.33-2.04-.63-.44-1.09-.49-1.74-.02-.88.64-1.86,1.14-2.8,1.69-.17.1-.35.16-.63.28.03-.34.03-.6.08-.85.24-1.19.47-2.39.75-3.57.08-.35.02-.58-.23-.81-1.14-1.06-2.28-2.12-3.5-3.26.46-.06.85-.13,1.25-.17.96-.1,1.92-.21,2.88-.27.74-.05,1.12-.48,1.39-1.09.39-.9.76-1.81,1.16-2.71.14-.33.32-.64.53-1.07.25.55.45,1,.65,1.44.39.88.8,1.76,1.15,2.66.2.5.52.7,1.04.74,1.41.12,2.81.28,4.31.44-.13.15-.19.25-.27.32-1.02.96-2.03,1.92-3.06,2.86-.4.37-.42.77-.31,1.25.26,1.19.5,2.38.74,3.57.04.17.05.35.07.52-.04.03-.08.07-.13.1Z"/>
  <path class="cls-1" d="M23.61,15.67c-1.09,1-2.08,1.99-3.15,2.87-.57.47-.65.93-.48,1.6.34,1.33.58,2.68.87,4.02-.04.03-.09.06-.13.09-.75-.44-1.5-.88-2.24-1.33-.55-.33-1.11-.65-1.64-1.02-.3-.21-.53-.18-.82,0-.97.61-1.95,1.21-2.92,1.8-.3.18-.62.34-1.08.59.25-1.21.46-2.27.68-3.33.06-.28.08-.58.19-.83.34-.76.02-1.23-.56-1.71-.88-.74-1.68-1.56-2.51-2.35-.13-.12-.22-.27-.4-.49.25-.04.41-.07.58-.08,1.32-.12,2.64-.24,3.96-.35.32-.02.46-.16.57-.45.51-1.26,1.05-2.51,1.58-3.76.09-.21.19-.41.34-.75.15.32.25.53.34.75.47,1.1.96,2.2,1.38,3.32.23.61.63.84,1.23.89,1.3.12,2.6.28,3.89.43.07,0,.14.03.31.06Z"/>
  <path class="cls-1" d="M90.87,15.77c-.63.58-1.26,1.16-1.89,1.74-.53.49-1.07.96-1.58,1.46-.12.12-.19.37-.16.54.28,1.45.59,2.9.89,4.35.02.1.01.2.02.4-.48-.27-.9-.5-1.31-.74-.89-.54-1.78-1.07-2.65-1.64-.29-.19-.5-.16-.77.01-.98.62-1.98,1.23-2.97,1.83-.29.17-.58.33-1.02.57.16-.89.3-1.63.44-2.38.13-.67.27-1.33.4-2,.12-.6-.08-1.09-.53-1.49-.95-.84-1.9-1.7-2.85-2.54-.06-.06-.16-.07-.24-.11l.08-.16c.72-.08,1.44-.16,2.16-.24.78-.09,1.56-.18,2.34-.27.38-.04.6-.26.74-.6.48-1.14.97-2.27,1.47-3.4.1-.23.22-.44.4-.8.35.78.65,1.45.94,2.12.32.74.64,1.47.93,2.22.14.38.36.5.75.52,1.42.11,2.84.26,4.26.39.04.07.09.13.13.2Z"/>
</svg>