<?xml version="1.0" encoding="UTF-8"?>
<svg id="Layer_1" data-name="Layer 1" xmlns="http://www.w3.org/2000/svg" viewBox="0 0 100 100">
  <defs>
    <style>
      .cls-1 {
        stroke-width: 0px;
      }
    </style>
  </defs>
  <path class="cls-1" d="M1.42,42.55c1.09-1.58,2.55-2.12,4.5-2.09,6.63.11,13.25.04,19.88.04,2.92,0,4,1.02,4,3.88.02,13.86.01,27.72,0,41.58,0,2.75-1.07,3.78-3.86,3.78-6.76.01-13.53-.06-20.29.05-1.91.03-3.26-.56-4.24-2.13v-45.12Z"/>
  <path class="cls-1" d="M33.85,46.02c8.89-3.28,12.5-10.93,15.94-18.76,2.07-4.72,2.89-9.61,2.49-14.73-.08-1.09-.02-2.19-.01-3.28.04-3.62,2.43-5.31,5.88-4.1,3.68,1.29,6.14,4,8.02,7.25,2.63,4.53,3.24,9.49,2.74,14.62-.3,3.03-.65,6.05-1,9.3,4.12,0,8.07-.06,12.02.02,3.95.08,7.97-.1,11.83.58,4.34.76,7.78,3.33,8.34,8.09.23,1.98-.63,4.09-.95,6.15-.14.91-.31,1.85-.21,2.74.38,3.46,1.13,6.95-1.96,9.73-.31.28-.28,1.01-.27,1.53.14,4.7-1.12,8.84-4.39,12.37-.68.74-.64,2.13-.98,3.21-.52,1.68-.91,3.43-1.67,5-1.33,2.74-3.51,4.06-6.73,4.03-12.24-.12-24.48-.09-36.72-.05-4.71.02-8.74-1.33-11.66-5.19-.34-.45-.68-1.06-.68-1.6-.04-12.3-.03-24.59-.03-36.91Z"/>
</svg>